<svg xmlns="http://www.w3.org/2000/svg" width="28.522" height="29.104" viewBox="0 0 28.522 29.104">
  <g id="google" transform="translate(0 0.004)">
    <path id="Path_168" data-name="Path 168" d="M144.519,109.734a12.469,12.469,0,0,0-.308-2.975H130.55v5.4h8.019a7.111,7.111,0,0,1-2.975,4.721l-.028.181,4.32,3.346.3.03a14.228,14.228,0,0,0,4.333-10.7" transform="translate(-115.999 -94.863)" fill="#4285f4"/>
    <path id="Path_169" data-name="Path 169" d="M26.924,168.043a13.87,13.87,0,0,0,9.636-3.525l-4.592-3.557a8.61,8.61,0,0,1-5.044,1.455,8.76,8.76,0,0,1-8.278-6.047l-.171.015-4.492,3.476-.059.163a14.541,14.541,0,0,0,13,8.02" transform="translate(-12.373 -138.943)" fill="#34a853"/>
    <path id="Path_170" data-name="Path 170" d="M6.273,80.793a8.958,8.958,0,0,1-.486-2.878,9.413,9.413,0,0,1,.469-2.878l-.008-.193L1.7,71.312l-.149.071a14.521,14.521,0,0,0,0,13.064l4.721-3.654" transform="translate(0 -63.366)" fill="#fbbc05"/>
    <path id="Path_171" data-name="Path 171" d="M26.919,5.624a8.065,8.065,0,0,1,5.627,2.167l4.107-4.01A13.98,13.98,0,0,0,26.919,0a14.542,14.542,0,0,0-13,8.022l4.707,3.651a8.8,8.8,0,0,1,8.294-6.047" transform="translate(-12.367 0)" fill="#eb4335"/>
  </g>
</svg>
